<svg xmlns="http://www.w3.org/2000/svg" viewBox="0 0 373.33 373.33"><defs><style>.cls-1{fill:#231f20;}.cls-2{fill:#fff;fill-rule:evenodd;}</style></defs><g id="Layer_2" data-name="Layer 2"><g id="Layer_1-2" data-name="Layer 1"><circle class="cls-1" cx="186.67" cy="186.67" r="186.67"/><path class="cls-2" d="M136.65,78.9h100a58.84,58.84,0,0,1,58.57,58.57V237a58.85,58.85,0,0,1-58.57,58.57h-100A58.84,58.84,0,0,1,78.08,237V137.47A58.84,58.84,0,0,1,136.65,78.9ZM245,116.73h0a12.62,12.62,0,0,1,12.44,12.44h0A12.61,12.61,0,0,1,245,141.61h0a12.28,12.28,0,0,1-12.44-12.44h0A12.28,12.28,0,0,1,245,116.73Zm-58.57,11.41h.52c32.13,0,59.09,27,59.09,59.09h0c0,32.65-27,59.09-59.09,59.09h-.52c-32.14,0-58.57-26.44-58.57-59.09h0c0-32.14,26.43-59.09,58.57-59.09Zm0,20.21h.52a39.16,39.16,0,0,1,38.87,38.88h0c0,21.77-17.62,39.39-38.87,39.39h-.52c-21.25,0-38.88-17.62-38.88-39.39h0a39.17,39.17,0,0,1,38.88-38.88ZM137.17,97.56h99A40.49,40.49,0,0,1,276.6,138v98.48a40.49,40.49,0,0,1-40.43,40.43h-99a40.48,40.48,0,0,1-40.43-40.43V138a40.48,40.48,0,0,1,40.43-40.43Z"/></g></g></svg>