<svg xmlns="http://www.w3.org/2000/svg" viewBox="0 0 373.33 373.33"><defs><style>.cls-1{fill:#231f20;}.cls-2{fill:#fff;fill-rule:evenodd;}</style></defs><g id="Layer_2" data-name="Layer 2"><g id="Layer_1-2" data-name="Layer 1"><circle class="cls-1" cx="186.67" cy="186.67" r="186.67"/><path class="cls-2" d="M252.46,124.63c-11.74-7.22-20.77-20.77-23-34.31a61.27,61.27,0,0,1-.91-9H192.88V223.48a30.25,30.25,0,0,1-30.25,30.24,31.08,31.08,0,0,1-14.44-3.61,30.13,30.13,0,0,1,14.44-56.87,31.38,31.38,0,0,1,9,1.35V158.48a61.39,61.39,0,0,0-9-.9c-36.56,0-66.35,29.34-66.35,65.9a65.25,65.25,0,0,0,28.44,53.71,68.41,68.41,0,0,0,37.91,11.74,65.59,65.59,0,0,0,65.9-65.45v-74a66.75,66.75,0,0,0,49.66,16.7V130.5C269.16,132.3,260.13,129.59,252.46,124.63Z"/></g></g></svg>