<svg xmlns="http://www.w3.org/2000/svg" viewBox="0 0 373.33 373.33"><defs><style>.cls-1{fill:#231f20;}.cls-2{fill:#fff;fill-rule:evenodd;}</style></defs><g id="Layer_2" data-name="Layer 2"><g id="Layer_1-2" data-name="Layer 1"><circle class="cls-1" cx="186.67" cy="186.67" r="186.67"/><path class="cls-2" d="M188.71,155.64c-8.77-46.2,46.79-73.69,79.55-40.35A117.25,117.25,0,0,0,295.75,103a50.59,50.59,0,0,1-20.47,25.74s17.54-2.34,25.15-7c0,0-7.61,15.79-21.64,21.64,7.6,105.86-106.45,170.2-198.86,117.56,0,0,45.62,2.34,64.92-19.88,0,0-28.08,2.34-42.11-31.59,0,0,10.52,4.1,21.05-1.17,0,0-32.75-5.26-35.68-44.45,0,0,10.53,8.19,22.23,5.27,0,0-36.26-21.65-15.79-60.83,0,0,38.6,49.13,94.16,47.37Z"/></g></g></svg>