<svg xmlns="http://www.w3.org/2000/svg" viewBox="0 0 373.33 373.33"><defs><style>.cls-1,.cls-3{fill:#231f20;}.cls-2{fill:#fff;}.cls-2,.cls-3{fill-rule:evenodd;}</style></defs><g id="Layer_2" data-name="Layer 2"><g id="Layer_1-2" data-name="Layer 1"><circle class="cls-1" cx="186.67" cy="186.67" r="186.67"/><path class="cls-2" d="M122.79,113c20.84-1.66,45.42-2.5,64.17-2.5h0c18.75,0,42.92.84,64.16,2.5,24.59,2.09,37.09,6.25,40.42,30.84,1.67,11.24,2.5,26.66,2.5,42.49h0c0,15.84-.83,31.67-2.5,42.5-3.33,25-15.83,28.75-40.42,30.83-21.24,2.09-45.41,2.5-64.16,2.5h0c-18.75,0-43.33-.41-64.17-2.5C98.21,257.62,85.3,253.87,82,228.87a401.34,401.34,0,0,1-2.08-42.5h0A407.23,407.23,0,0,1,82,143.88c3.34-24.59,16.25-28.75,40.83-30.84Z"/><polygon class="cls-3" points="165.29 154.29 221.13 186.37 165.29 218.87 165.29 154.29"/></g></g></svg>